<?xml version="1.0" standalone="no"?>
<!DOCTYPE svg PUBLIC "-//W3C//DTD SVG 20010904//EN"
 "http://www.w3.org/TR/2001/REC-SVG-20010904/DTD/svg10.dtd">
<svg version="1.0" xmlns="http://www.w3.org/2000/svg"
 width="700.000000pt" height="700.000000pt" viewBox="0 0 700.000000 700.000000"
 preserveAspectRatio="xMidYMid meet">
<metadata>
Created by potrace 1.11, written by Peter Selinger 2001-2013
</metadata>
<g transform="translate(0.000000,700.000000) scale(0.100000,-0.100000)"
fill="#000000" stroke="none">
<path d="M2625 6979 c-38 -11 -107 -38 -153 -60 -100 -48 -203 -144 -248 -231
-25 -50 -34 -59 -64 -64 -185 -32 -307 -144 -364 -334 -28 -90 -31 -133 -30
-391 l0 -247 -33 -5 c-47 -8 -90 -42 -115 -90 -27 -54 -34 -181 -13 -252 31
-102 129 -243 232 -333 46 -41 56 -55 58 -86 17 -205 116 -447 251 -612 20
-25 35 -46 33 -48 -2 -2 -44 -6 -94 -10 -191 -13 -295 -48 -403 -134 -111 -89
-163 -281 -127 -470 7 -37 10 -70 7 -73 -4 -3 -29 -14 -57 -24 -83 -30 -225
-103 -312 -162 -335 -224 -565 -556 -668 -961 -22 -88 -24 -114 -25 -378 l-1
-284 1929 0 1929 0 18 -47 c109 -291 371 -537 690 -649 77 -27 88 -28 313 -32
227 -4 235 -3 323 22 368 106 651 387 766 761 26 86 27 100 28 300 0 175 -3
223 -19 285 -126 494 -583 838 -1094 825 -59 -2 -129 -8 -155 -14 -55 -13 -46
-17 -158 78 -116 98 -269 186 -429 246 -102 38 -100 35 -85 103 15 75 12 204
-8 272 -14 49 -51 115 -89 161 -25 30 -113 91 -164 114 -73 32 -179 55 -273
57 -45 1 -81 3 -81 4 0 1 16 22 37 46 150 178 246 402 268 625 5 49 10 56 89
136 152 155 220 286 215 416 -1 36 -7 80 -12 98 -22 70 -99 133 -164 133 -23
0 -24 3 -19 38 3 20 8 69 12 107 4 39 9 79 11 90 11 50 9 247 -3 318 -27 150
-122 302 -226 357 l-44 23 37 71 c58 112 68 197 35 292 l-11 33 -64 -44 c-75
-52 -144 -80 -221 -90 -47 -6 -70 -2 -162 28 -249 82 -413 105 -753 105 -241
1 -277 -1 -340 -19z m495 -103 c14 -3 52 -7 85 -10 33 -3 69 -7 80 -10 11 -2
41 -6 66 -10 118 -17 214 -41 318 -78 70 -24 103 -30 176 -31 52 -1 106 4 128
12 21 7 40 11 42 9 6 -6 -76 -112 -134 -174 -29 -31 -50 -58 -48 -61 3 -2 38
-6 78 -9 83 -5 130 -17 174 -47 116 -78 168 -217 160 -422 -2 -60 -6 -119 -9
-130 -2 -11 -7 -51 -11 -90 -13 -135 -12 -133 -89 -166 -70 -30 -96 -35 -96
-21 0 5 -24 22 -52 38 l-53 29 -200 0 c-313 0 -429 -16 -521 -70 -25 -15 -54
-42 -65 -60 -18 -30 -23 -32 -77 -33 -56 -1 -58 0 -85 39 -65 94 -163 118
-502 124 -86 2 -180 -2 -220 -9 -67 -12 -155 -50 -155 -68 0 -14 -23 -9 -110
26 -74 30 -86 38 -91 63 -12 59 -8 437 5 498 38 180 141 270 323 283 l73 5 6
36 c30 163 201 291 446 335 69 12 299 14 358 2z m-435 -1300 c124 -11 193 -40
196 -81 5 -50 4 -62 -3 -75 -4 -8 -30 -63 -58 -123 -28 -59 -62 -118 -76 -130
-51 -44 -115 -57 -268 -54 -204 5 -250 29 -271 143 -2 16 -7 40 -10 54 -38
187 -16 249 98 269 48 8 287 6 392 -3z m1180 -20 c65 -10 71 -14 87 -45 19
-38 17 -84 -8 -216 -27 -138 -41 -154 -149 -174 -82 -16 -282 -8 -340 13 -68
25 -78 35 -129 140 -62 128 -81 188 -66 216 18 34 87 59 181 66 46 3 85 7 87
9 8 8 277 1 337 -9z m-1894 -40 l66 -27 0 -57 c0 -31 8 -102 18 -157 45 -266
135 -327 465 -320 262 5 334 57 461 333 23 48 44 93 48 101 9 17 77 21 96 6 8
-5 25 -38 39 -73 39 -97 116 -233 150 -265 77 -73 223 -112 386 -103 133 6
162 12 233 43 61 28 111 76 133 130 29 69 59 235 57 320 l-1 41 72 26 c60 22
77 25 101 16 16 -6 38 -10 49 -9 48 3 63 -2 74 -26 29 -64 6 -166 -60 -263
-40 -60 -134 -161 -192 -207 -36 -29 -38 -33 -41 -100 -13 -247 -113 -467
-309 -672 -164 -172 -376 -297 -591 -348 -59 -14 -216 -14 -280 -1 -182 39
-380 147 -534 292 -196 184 -323 431 -346 669 -9 94 -11 99 -72 151 -131 111
-220 221 -250 310 -16 48 -15 157 3 173 5 5 27 12 48 15 22 4 51 13 65 20 30
16 25 17 112 -18z m274 -1445 c6 0 10 -29 11 -64 0 -69 12 -199 19 -219 2 -7
7 -24 9 -38 45 -242 204 -473 384 -560 28 -14 51 -27 52 -30 0 -3 -12 -13 -28
-24 -38 -26 -108 -112 -133 -163 -24 -49 -17 -49 -164 -1 -232 76 -444 220
-584 397 -85 109 -123 224 -123 373 0 126 55 219 162 273 50 25 144 51 210 57
32 3 161 3 185 -1z m1831 -5 c287 -28 404 -205 328 -499 -47 -186 -259 -405
-521 -536 -44 -23 -87 -41 -95 -41 -8 0 -18 -4 -24 -8 -5 -5 -29 -14 -53 -21
-23 -7 -49 -15 -56 -17 -7 -3 -25 17 -43 49 -35 62 -83 114 -142 153 l-42 28
34 17 c51 26 171 142 213 204 103 156 158 334 171 555 3 52 7 100 9 107 3 10
116 22 150 16 6 -1 38 -4 71 -7z m-1604 -111 c119 -80 290 -159 389 -179 13
-3 47 -9 74 -15 50 -10 225 -8 278 3 131 29 305 106 431 190 38 25 71 46 74
46 11 0 -10 -164 -33 -256 -72 -287 -232 -449 -500 -509 -101 -23 -189 -22
-286 4 -246 64 -401 227 -473 499 -14 51 -24 93 -24 95 0 4 -13 123 -17 150
-3 15 -2 27 0 27 3 0 42 -25 87 -55z m2100 -571 c108 -39 252 -117 353 -191
l89 -66 -74 -36 c-137 -66 -208 -116 -314 -219 -262 -256 -386 -648 -311 -979
l5 -23 -1851 0 -1852 0 6 163 c7 182 9 195 37 316 106 448 421 820 856 1011
91 40 99 42 109 25 5 -10 35 -52 67 -94 170 -229 433 -403 733 -486 l80 -22 5
-64 c3 -35 4 -100 2 -145 l-3 -80 -35 -13 c-117 -42 -178 -200 -126 -322 48
-111 170 -171 297 -145 217 43 271 334 84 451 -21 14 -46 25 -55 25 -14 0 -15
22 -12 193 4 219 13 253 87 320 73 66 91 70 338 72 188 2 229 0 273 -15 70
-24 120 -67 154 -133 25 -50 29 -67 31 -157 l1 -101 -47 -24 c-88 -45 -141
-139 -135 -241 12 -217 284 -309 433 -147 35 37 63 114 63 169 0 89 -55 175
-140 219 l-45 23 0 65 -1 65 94 31 c186 62 368 166 504 291 70 64 179 199 206
257 9 18 17 33 18 33 2 0 36 -12 76 -26z m1048 -348 c193 -49 347 -134 475
-263 182 -185 274 -400 280 -658 7 -272 -84 -508 -272 -702 -186 -193 -440
-295 -713 -288 -141 4 -172 9 -283 46 -338 112 -583 395 -650 751 -18 98 -14
280 8 378 78 339 320 602 657 714 39 13 120 30 188 39 60 8 250 -3 310 -17z
m-1943 -541 c33 -33 35 -39 30 -81 -6 -54 -27 -80 -78 -96 -44 -13 -84 -1
-118 36 -60 64 -3 176 91 176 32 0 47 -7 75 -35z m-1030 -149 c44 -22 67 -77
52 -123 -22 -67 -112 -96 -178 -57 -75 44 -64 155 18 188 43 16 65 15 108 -8z"/>
<path d="M5343 2113 l-260 -528 61 -32 61 -32 261 527 c144 290 259 531 257
535 -4 7 -105 57 -115 57 -2 0 -121 -237 -265 -527z"/>
<path d="M4801 2246 l-155 -155 50 -53 c27 -29 97 -102 156 -163 l107 -110 51
50 50 50 -110 112 -110 112 110 107 111 108 -50 48 c-27 26 -51 48 -53 48 -2
0 -73 -70 -157 -154z"/>
<path d="M5802 2351 l-52 -49 112 -106 112 -107 -111 -112 -111 -112 43 -42
c25 -23 49 -44 54 -47 9 -6 321 299 321 314 0 6 -222 226 -286 282 l-31 27
-51 -48z"/>
<path d="M543 832 c-25 -20 -38 -61 -29 -97 7 -27 52 -55 89 -55 26 0 67 33
67 55 0 22 -14 18 -38 -10 -25 -29 -39 -31 -70 -9 -32 22 -30 78 3 100 23 15
65 12 65 -6 0 -12 29 -20 35 -10 3 5 -3 18 -15 30 -25 25 -77 26 -107 2z"/>
<path d="M1093 843 c-7 -3 -13 -11 -13 -18 0 -7 -6 -16 -12 -19 -10 -5 -10 -7
0 -12 6 -3 12 -23 12 -44 0 -21 3 -45 6 -54 7 -17 54 -22 54 -6 0 6 -7 10 -15
10 -11 0 -15 12 -15 45 0 33 4 45 15 45 8 0 15 5 15 10 0 6 -6 10 -14 10 -8 0
-16 8 -18 18 -2 11 -9 17 -15 15z"/>
<path d="M1400 818 c0 -25 -3 -29 -12 -20 -32 32 -88 -1 -88 -51 0 -42 31 -65
84 -65 l46 1 0 84 c0 67 -3 83 -15 83 -10 0 -15 -10 -15 -32z m-10 -47 c15
-30 12 -49 -11 -61 -25 -14 -49 2 -49 34 0 43 41 61 60 27z"/>
<path d="M1530 767 l0 -84 49 -1 c55 -1 68 8 77 55 8 43 -26 78 -67 69 -26 -5
-29 -3 -29 19 0 16 -6 25 -15 25 -12 0 -15 -16 -15 -83z m88 11 c30 -30 -2
-93 -36 -71 -21 13 -27 50 -12 69 15 17 32 18 48 2z"/>
<path d="M1918 834 c-65 -35 -35 -154 38 -154 48 0 94 36 78 61 -9 15 -22 10
-29 -11 -9 -28 -51 -37 -75 -15 -28 25 -27 79 2 99 29 21 44 20 66 -1 38 -37
59 -20 22 17 -23 23 -64 25 -102 4z"/>
<path d="M2453 833 c-4 -10 -11 -22 -17 -26 -8 -6 -7 -10 2 -14 7 -3 12 -24
12 -54 0 -44 3 -49 25 -55 32 -8 46 4 22 17 -22 13 -25 89 -2 89 8 0 15 5 15
10 0 6 -7 10 -15 10 -8 0 -15 6 -15 14 0 23 -19 29 -27 9z"/>
<path d="M2540 840 c0 -5 7 -10 15 -10 8 0 15 5 15 10 0 6 -7 10 -15 10 -8 0
-15 -4 -15 -10z"/>
<path d="M2957 832 c-33 -36 -16 -67 42 -78 28 -6 51 -28 40 -38 -18 -16 -50
-15 -68 3 -24 24 -41 27 -41 7 0 -36 76 -57 115 -32 46 30 23 74 -48 90 -20 5
-27 12 -25 24 4 23 32 27 51 7 20 -19 37 -19 37 0 0 34 -76 47 -103 17z"/>
<path d="M3110 829 c0 -9 -6 -20 -12 -22 -10 -4 -10 -7 -1 -14 6 -5 13 -31 15
-58 3 -46 5 -50 31 -53 15 -2 27 1 27 7 0 6 -7 11 -15 11 -11 0 -15 12 -15 45
0 33 4 45 15 45 8 0 15 5 15 10 0 6 -7 10 -15 10 -8 0 -15 8 -15 18 0 10 -7
19 -15 19 -8 0 -15 -8 -15 -18z"/>
<path d="M3350 765 c0 -69 3 -85 15 -85 12 0 15 16 15 85 0 69 -3 85 -15 85
-12 0 -15 -16 -15 -85z"/>
<path d="M3410 765 c0 -69 3 -85 15 -85 12 0 15 16 15 85 0 69 -3 85 -15 85
-12 0 -15 -16 -15 -85z"/>
<path d="M690 744 c0 -50 3 -64 15 -64 11 0 15 12 15 44 0 37 5 48 27 64 l26
19 -41 0 -42 0 0 -63z"/>
<path d="M790 790 c-56 -56 21 -143 86 -96 26 20 10 32 -21 16 -20 -11 -27
-11 -40 0 -23 19 -18 30 13 29 59 -3 72 0 65 19 -19 52 -67 68 -103 32z m68
-17 c2 -9 -7 -13 -28 -13 -28 0 -31 2 -20 15 15 18 41 16 48 -2z"/>
<path d="M929 790 c-23 -19 -23 -19 -3 -20 11 0 25 5 31 11 13 13 43 5 43 -10
0 -5 -18 -12 -40 -16 -27 -4 -41 -13 -45 -26 -11 -33 12 -48 69 -47 l53 1 -5
51 c-2 28 -9 57 -14 64 -15 18 -63 15 -89 -8z m71 -64 c0 -18 -39 -31 -52 -18
-15 15 0 32 28 32 14 0 24 -6 24 -14z"/>
<path d="M1180 788 c-25 -28 -26 -62 0 -88 24 -24 63 -26 85 -4 22 22 11 30
-20 14 -20 -11 -27 -11 -40 0 -24 20 -18 29 23 28 58 -1 62 1 55 20 -19 53
-68 68 -103 30z m68 -15 c2 -9 -7 -13 -28 -13 -28 0 -31 2 -20 15 15 18 41 16
48 -2z"/>
<path d="M1675 793 c4 -10 15 -42 25 -70 19 -52 19 -53 -1 -63 -24 -14 -25
-30 0 -30 25 0 35 14 65 94 30 79 31 86 12 86 -7 0 -19 -20 -27 -47 l-13 -47
-19 47 c-11 26 -26 47 -34 47 -10 0 -13 -6 -8 -17z"/>
<path d="M2060 744 c0 -50 3 -64 15 -64 11 0 15 12 15 50 0 45 3 50 25 56 38
9 30 21 -15 21 l-40 0 0 -63z"/>
<path d="M2160 790 c-56 -56 21 -143 86 -96 26 20 10 32 -21 16 -20 -11 -27
-11 -40 0 -26 22 -17 30 35 30 43 0 49 2 43 18 -19 52 -67 68 -103 32z m68
-17 c2 -9 -7 -13 -27 -13 -31 0 -42 14 -18 23 19 8 40 3 45 -10z"/>
<path d="M2299 790 c-23 -19 -23 -19 -3 -20 11 0 25 5 31 11 13 13 43 6 43 -9
0 -6 -20 -15 -45 -21 -33 -8 -45 -16 -45 -30 0 -29 20 -39 76 -38 l51 1 -5 50
c-6 75 -52 99 -103 56z m59 -81 c-17 -11 -40 -7 -45 8 -2 6 9 15 24 20 22 8
29 7 31 -5 2 -8 -2 -19 -10 -23z"/>
<path d="M2540 745 c0 -51 3 -65 15 -65 12 0 15 14 15 65 0 51 -3 65 -15 65
-12 0 -15 -14 -15 -65z"/>
<path d="M2604 748 c32 -84 51 -84 83 0 21 57 22 63 6 60 -10 -2 -22 -18 -28
-40 -15 -55 -23 -56 -37 -4 -9 32 -17 46 -30 46 -16 0 -15 -5 6 -62z"/>
<path d="M2740 790 c-11 -11 -20 -31 -20 -45 0 -53 69 -85 105 -49 22 22 11
30 -20 14 -20 -11 -27 -11 -40 0 -26 22 -17 30 33 28 42 -2 47 -1 44 17 -9 52
-65 72 -102 35z m68 -17 c2 -9 -7 -13 -27 -13 -31 0 -42 14 -18 23 19 8 40 3
45 -10z"/>
<path d="M3218 803 c-24 -6 -32 -33 -10 -33 10 0 23 5 29 11 13 13 43 5 43
-11 0 -5 -18 -13 -40 -16 -27 -4 -41 -13 -46 -26 -10 -32 12 -47 70 -45 l53 1
-5 51 c-2 27 -9 56 -14 63 -10 12 -46 14 -80 5z m62 -77 c0 -18 -39 -31 -52
-18 -15 15 0 32 28 32 14 0 24 -6 24 -14z"/>
<path d="M533 573 c-4 -10 -11 -22 -17 -26 -8 -6 -7 -10 2 -14 7 -3 12 -25 12
-59 0 -41 4 -54 15 -54 11 0 15 13 15 54 0 34 5 56 13 59 9 4 8 8 -3 16 -12 9
-12 11 3 17 9 3 14 10 11 15 -9 16 -44 10 -51 -8z"/>
<path d="M1120 505 c0 -69 3 -85 15 -85 12 0 15 14 15 63 l0 62 38 -62 c22
-38 44 -63 55 -63 15 0 17 11 17 85 0 69 -3 85 -15 85 -12 0 -15 -14 -15 -62
l0 -63 -38 62 c-22 38 -44 63 -54 63 -16 0 -18 -11 -18 -85z"/>
<path d="M1800 505 c0 -69 3 -85 15 -85 10 0 15 11 15 35 0 35 0 35 45 35 50
0 72 23 59 63 -10 31 -22 37 -81 37 l-53 0 0 -85z m88 59 c17 -3 22 -10 20
-27 -2 -18 -11 -23 -40 -25 -36 -3 -38 -2 -38 26 0 30 12 35 58 26z"/>
<path d="M2200 580 c0 -5 7 -10 15 -10 8 0 15 5 15 10 0 6 -7 10 -15 10 -8 0
-15 -4 -15 -10z"/>
<path d="M2563 583 c-7 -3 -13 -11 -13 -18 0 -7 -6 -16 -12 -18 -10 -4 -10 -7
-1 -14 6 -5 13 -31 15 -58 3 -46 5 -50 31 -53 29 -4 37 12 12 22 -10 3 -15 19
-15 46 0 29 4 40 15 40 8 0 15 5 15 10 0 6 -6 10 -14 10 -8 0 -16 8 -18 18 -2
11 -9 17 -15 15z"/>
<path d="M600 484 c0 -49 3 -64 14 -64 11 0 16 14 18 47 2 38 8 50 26 59 28
14 19 21 -25 22 l-33 1 0 -65z"/>
<path d="M700 530 c-11 -11 -20 -31 -20 -45 0 -14 9 -34 20 -45 11 -11 31 -20
45 -20 14 0 34 9 45 20 11 11 20 31 20 45 0 14 -9 34 -20 45 -11 11 -31 20
-45 20 -14 0 -34 -9 -45 -20z m68 -12 c32 -32 1 -89 -37 -68 -26 13 -28 55 -3
69 22 13 26 13 40 -1z"/>
<path d="M830 485 c0 -51 3 -65 15 -65 11 0 15 12 15 49 0 35 4 51 16 55 26
10 34 -3 34 -55 0 -37 4 -49 15 -49 11 0 15 12 15 49 0 35 4 51 16 55 26 10
34 -3 34 -55 0 -37 4 -49 15 -49 19 0 21 100 3 118 -14 14 -54 16 -63 2 -4 -6
-13 -5 -25 3 -16 9 -24 9 -40 -1 -12 -7 -20 -8 -20 -2 0 5 -7 10 -15 10 -12 0
-15 -14 -15 -65z"/>
<path d="M1310 530 c-11 -11 -20 -31 -20 -45 0 -14 9 -34 20 -45 11 -11 31
-20 45 -20 14 0 34 9 45 20 11 11 20 31 20 45 0 14 -9 34 -20 45 -11 11 -31
20 -45 20 -14 0 -34 -9 -45 -20z m70 -14 c28 -34 -11 -94 -44 -67 -21 18 -20
57 2 70 23 14 28 13 42 -3z"/>
<path d="M1440 496 c0 -63 10 -74 68 -73 l42 0 0 63 c0 50 -3 64 -15 64 -11 0
-15 -12 -15 -49 0 -35 -4 -51 -16 -55 -26 -10 -34 3 -34 55 0 37 -4 49 -15 49
-11 0 -15 -13 -15 -54z"/>
<path d="M1580 485 c0 -51 3 -65 15 -65 11 0 15 12 15 49 0 35 4 51 16 55 26
10 34 -3 34 -55 0 -38 4 -49 15 -49 13 0 15 11 13 56 -3 66 -23 88 -58 66 -12
-7 -20 -8 -20 -2 0 5 -7 10 -15 10 -12 0 -15 -14 -15 -65z"/>
<path d="M1960 484 c0 -49 3 -64 14 -64 11 0 16 14 18 47 2 39 7 50 28 60 14
7 23 13 20 14 -3 1 -22 3 -42 4 l-38 4 0 -65z"/>
<path d="M2062 534 c-45 -31 -14 -114 43 -114 14 0 34 9 45 20 58 58 -20 142
-88 94z m66 -16 c16 -16 15 -53 -2 -67 -23 -19 -56 4 -56 39 0 26 6 31 41 39
3 0 10 -4 17 -11z"/>
<path d="M2200 477 c0 -43 -5 -78 -12 -85 -16 -16 -1 -29 20 -16 24 16 31 174
7 174 -12 0 -15 -14 -15 -73z"/>
<path d="M2270 530 c-11 -11 -20 -31 -20 -45 0 -52 69 -85 104 -49 26 26 18
36 -15 19 -24 -13 -34 -14 -45 -4 -19 16 -18 31 4 28 49 -5 72 1 72 19 0 25
-31 52 -58 52 -12 0 -31 -9 -42 -20z m68 -17 c2 -9 -7 -13 -27 -13 -31 0 -42
14 -18 23 19 8 40 3 45 -10z"/>
<path d="M2410 530 c-41 -41 -13 -110 46 -110 19 0 54 28 54 43 0 13 -28 7
-33 -7 -13 -32 -61 -2 -55 34 4 32 35 50 51 30 16 -20 37 -23 37 -5 0 35 -69
46 -100 15z"/>
</g>
</svg>
